<?xml version="1.0" encoding="UTF-8"?>
<svg id="Layer_1" xmlns="http://www.w3.org/2000/svg" version="1.1" viewBox="0 0 432 120.28">
  <!-- Generator: Adobe Illustrator 29.5.1, SVG Export Plug-In . SVG Version: 2.1.0 Build 141)  -->
  <defs>
    <style>
      .st0 {
        font-size: 5.82px;
      }

      .st0, .st1 {
        font-family: Termina-Heavy, Termina;
        font-weight: 800;
      }

      .st0, .st1, .st2 {
        fill: #fff;
      }

      .st1 {
        font-size: 5.82px;
      }
    </style>
  </defs>
  <g>
    <g>
      <path class="st2" d="M88.19,60.11c-1.08-1.94-3.16-3.12-5.38-3.05l-53.99,1.82v7.7l64.4,2.54-5.03-9.01Z"/>
      <path class="st2" d="M28.81,84.21v7.04h56.86c1.42,0,2.72-.77,3.4-2.01l4.03-7.36-64.29,2.33Z"/>
      <path class="st2" d="M28.81,45.47v10.05l48.89-2.53c2.71-.13,5.26-1.31,7.12-3.29l3.13-3.34-59.14-.89Z"/>
      <path class="st2" d="M83.51,22.04c-.58-.74-1.47-1.16-2.41-1.14l-52.28,1.55v9.06l58.42-4.71-3.72-4.77Z"/>
      <path class="st2" d="M88.73,30.26l-11.17.82-48.74,3.3v7.95l49.09.44,10.76.11c.84-1.8,1.34-3.99,1.34-6.37s-.47-4.47-1.28-6.24Z"/>
      <path class="st2" d="M93.78,72.07l-52.99-1.82-11.97-.4v11.6l12.45-.54,52.33-2.33c.27-1.21.42-2.46.42-3.74,0-.94-.09-1.86-.23-2.77Z"/>
    </g>
    <g>
      <path class="st2" d="M120.88,64.95c-1.72,0-7.72-.51-9.4-.51.25-2.73.41-7.95.41-12.97v-1.9c0-5.14-.16-10.32-.41-13.01h.04c3.8,0,7.89-.51,8.34-.51,6.09,0,10.13,2.93,10.13,7.32,0,2.69-1.55,4.71-4.45,5.85,3.76.59,6.17,3.16,6.17,6.84,0,2.69-1.31,4.86-3.76,6.33-2.53,1.5-6.7,2.57-7.07,2.57ZM126.03,44.11c0-3.12-2.49-4.94-6.74-4.94-.94,0-2.29.08-3.56.16-.16,2.61-.24,5.97-.24,9.33h4.99c3.47,0,5.56-1.7,5.56-4.55ZM127.75,56.69c0-3.28-2.74-5.22-7.36-5.22-1.63,0-3.51.04-4.9.08,0,3.64.08,7.24.2,9.97,1.92.16,4,.28,5.11.28,4.37,0,6.95-1.9,6.95-5.1Z"/>
      <path class="st2" d="M155.7,64.56c-3.8-.08-7.64-.12-10.71-.12h-5.88c.25-2.73.41-7.95.41-12.97v-1.9c0-5.14-.16-10.32-.41-13.01h4.5c-.25,2.73-.41,7.95-.41,12.97v1.9c0,3.48.08,7,.2,9.73,1.19.04,2.49.08,3.56.08,3.56,0,6.13-.24,7.89-.59.16-.04,1.27.08,1.39.12l-.53,3.8Z"/>
      <path class="st2" d="M166.78,57.52c-1.23,3.56-2.08,6.01-2.33,6.92h-4.13c-.04-.16-.04-1.42,0-1.54,2.17-4.39,6.54-14.95,11.07-26.26l3.68-.16c4.5,11.47,8.83,22.03,10.95,26.42.04.12.04,1.38,0,1.54h-4.29c-.29-.91-1.14-3.4-2.45-6.96-1.18-.08-2.25-.08-3.92-.08-4.29,0-6.74.04-8.58.12ZM178.1,54.31c-1.43-3.84-3.19-8.54-5.19-13.8-1.96,5.26-3.64,10.01-5.03,13.84.82.04,1.72.04,2.9.04,3.39,0,5.64-.04,7.31-.08Z"/>
      <path class="st2" d="M204.62,65.19c-8.34,0-13.53-5.54-13.53-13.84,0-5.46,2.25-10.12,6.01-12.54,2.9-1.86,7.6-3.05,8.09-3.05,2.49,0,5.8.83,8.34,2.1l-1.43,3.72c-.16.04-.78.04-.94,0l-5.52-2.41c-.33-.04-.65-.04-1.02-.04-5.72,0-9.44,4.15-9.44,11.19s3.84,11.35,10.34,11.35c2.49,0,4.99-.63,7.56-1.98l1.1,2.77c-3.43,1.86-6.33,2.73-9.56,2.73Z"/>
      <path class="st2" d="M221.95,64.44c.25-2.73.41-7.95.41-12.97v-1.9c0-5.14-.16-10.32-.41-13.01h4.45c-.24,2.73-.41,7.95-.41,12.97v1.82c6.01-6.68,10.13-11.51,12.3-14.79h4.25c.04.16.04,1.42,0,1.54-1.27,1.03-3.43,3.24-10.5,10.76,3.64,5.02,8.05,10.52,11.28,14.04.04.16.04,1.38,0,1.54l-4.54.12c-2.04-3.32-5.68-8.34-9.32-12.93l-3.43,3.64c.04,3.76.2,7.16.37,9.17h-4.45Z"/>
      <path class="st2" d="M270.05,64.95c-1.72,0-7.81-.51-9.48-.51.25-2.73.41-7.95.41-12.97v-1.9c0-5.14-.16-10.32-.41-13.01,2.62,0,9.24-.51,9.64-.51,8.38,0,13.93,5.66,13.93,14.12,0,5.1-2.04,9.1-6.01,11.67-3.11,2.02-7.68,3.12-8.09,3.12ZM280.1,50.99c0-7.04-4.5-11.75-11.2-11.75-.86,0-2.45.08-4.05.2-.12,2.81-.2,6.49-.2,10.08v1.9c0,3.64.08,7.28.2,10.04,1.88.16,3.92.28,5.11.28,6.13,0,10.13-4.11,10.13-10.76Z"/>
      <path class="st2" d="M310.75,64.56c-3.8-.08-8.3-.12-11.32-.12h-6.5c.24-2.73.41-7.95.41-12.97v-1.9c0-5.14-.16-10.32-.41-13.09,2.9.04,4.99.08,7.56.08,3.6,0,7.89-.08,9.77-.16l-.49,3.68c-.16.08-1.23.16-1.39.12-1.51-.32-4.74-.55-7.72-.55-1.14,0-2.33.04-3.43.08-.12,2.53-.2,5.69-.2,8.86,4.37-.04,8.05-.2,9.6-.36l-.41,3.76c-1.68-.16-5.19-.32-9.19-.36,0,3.48.08,6.96.2,9.65,1.31.04,2.78.08,4.17.08,3.35,0,6.99-.2,8.46-.51.16-.04,1.27.08,1.39.12l-.49,3.6Z"/>
      <path class="st2" d="M325.96,65.23c-3.15,0-6.46-1.11-8.5-2.69l1.55-3.88c2.57,2.14,5.19,3.28,8.01,3.28,3.06,0,4.9-1.54,4.9-4.19,0-2.1-1.14-3.4-4-4.63l-4.13-1.78c-3.84-1.66-5.68-3.95-5.68-7.36,0-2.53.98-4.55,2.9-5.89,2-1.38,5.68-2.33,6.13-2.33,2.7,0,5.48.75,7.81,1.98l-1.47,3.84c-.16.04-.78.04-.94,0l-5.8-2.69h-.25c-3.02,0-4.78,1.5-4.78,4.07,0,2.06,1.18,3.36,4.21,4.67l4.13,1.78c3.76,1.62,5.48,3.91,5.48,7.32,0,2.61-.98,4.63-2.9,5.93-2,1.38-6.21,2.57-6.66,2.57Z"/>
      <path class="st2" d="M362.17,64.56c-3.8-.08-8.3-.12-11.32-.12h-6.5c.24-2.73.41-7.95.41-12.97v-1.9c0-5.14-.16-10.32-.41-13.09,2.9.04,4.99.08,7.56.08,3.6,0,7.89-.08,9.77-.16l-.49,3.68c-.16.08-1.23.16-1.39.12-1.51-.32-4.74-.55-7.72-.55-1.14,0-2.33.04-3.43.08-.12,2.53-.2,5.69-.2,8.86,4.37-.04,8.05-.2,9.6-.36l-.41,3.76c-1.68-.16-5.19-.32-9.19-.36,0,3.48.08,6.96.2,9.65,1.31.04,2.78.08,4.17.08,3.35,0,6.99-.2,8.46-.51.16-.04,1.27.08,1.39.12l-.49,3.6Z"/>
      <path class="st2" d="M383.01,53.44c3.64,4.07,7.11,7.75,8.95,9.45.04.16.04,1.38,0,1.54l-4.37.12c-1.39-1.9-4.7-5.81-8.46-10-1.1,0-2.53-.12-4.21-.24.08,4.11.2,7.95.41,10.12h-4.49c.24-2.73.41-7.95.41-12.97v-1.9c0-5.14-.16-10.32-.41-13.01,2.7,0,9.48-.51,9.89-.51,5.56,0,9.28,3.4,9.28,8.5,0,3.2-1.43,5.77-4.21,7.51-.82.51-1.84.99-2.78,1.38ZM385.87,45.3c0-3.84-2.41-6.13-6.5-6.13-.9,0-2.57.08-4.25.2-.12,2.81-.2,6.52-.2,10.16v1.66c1.63.12,3.31.2,4.33.2,4.17,0,6.62-2.25,6.62-6.09Z"/>
      <path class="st2" d="M405.12,64.44c.25-2.73.41-7.95.41-12.97v-1.9c0-3.6-.08-7.2-.2-9.97-3.23.04-6.54.28-8.05.55-.16.04-1.23-.04-1.39-.12l.16-3.64c1.88.08,6.37.16,10.67.16h1.39c4.29,0,8.79-.08,10.67-.16l-.41,3.68c-.16.08-1.23.16-1.39.12-1.35-.28-4.41-.51-7.56-.59-.12,2.81-.2,6.41-.2,9.93v1.9c0,5.14.16,10.32.41,13.01h-4.5Z"/>
    </g>
  </g>
  <g>
    <g>
      <path class="st2" d="M275.63,96.5l-4.49-5.25h-6.1v5.25h-2.48v-14.47h9.84c3.37,0,5.85,1.61,5.85,4.61,0,2.5-1.74,4.03-4.26,4.49l4.69,5.38h-3.06ZM272.24,89.12c2.07,0,3.47-.66,3.47-2.46s-1.41-2.46-3.47-2.46h-7.22v4.92h7.22Z"/>
      <path class="st2" d="M279.1,96.69h-3.56l-4.49-5.25h-5.83v5.25h-2.86v-14.85h10.03c3.67,0,6.04,1.88,6.04,4.8,0,2.37-1.49,4.03-4.09,4.61l4.75,5.44ZM275.72,96.32h2.56l-4.64-5.31.33-.06c2.61-.47,4.11-2.04,4.11-4.3,0-2.73-2.17-4.42-5.66-4.42h-9.65v14.1h2.11v-5.25h6.37l4.49,5.25ZM272.24,89.31h-7.4v-5.3h7.4c2.43,0,3.66.89,3.66,2.65s-1.23,2.65-3.66,2.65ZM265.21,88.94h7.03c2.21,0,3.29-.74,3.29-2.27s-1.08-2.27-3.29-2.27h-7.03v4.55Z"/>
    </g>
    <g>
      <path class="st2" d="M305.67,94.33v2.17h-14.41v-14.47h14.2v2.17h-11.74v3.87h9.88v2.17h-9.88v4.09h11.95Z"/>
      <path class="st2" d="M305.86,96.69h-14.79v-14.85h14.58v2.55h-11.74v3.49h9.88v2.55h-9.88v3.72h11.95v2.55ZM291.45,96.32h14.04v-1.8h-11.95v-4.47h9.88v-1.8h-9.88v-4.24h11.74v-1.8h-13.83v14.1Z"/>
    </g>
    <g>
      <path class="st2" d="M333.27,92.22c0,2.75-2.71,4.71-7.63,4.71-3.39,0-6.39-.99-8.64-2.94l1.55-1.76c1.96,1.76,4.28,2.54,7.19,2.54,3.23,0,5-.85,5-2.36s-1.82-1.88-5.46-2.19c-3.99-.33-7.75-1.22-7.75-4.18s3.33-4.47,7.48-4.47c3.14,0,5.81.93,7.55,2.4l-1.57,1.7c-1.49-1.3-3.54-1.92-5.93-1.94-2.29-.02-5.02.54-5.02,2.15,0,1.53,2.42,1.8,5.58,2.05,4.51.35,7.65,1.26,7.65,4.28Z"/>
      <path class="st2" d="M325.64,97.13c-3.47,0-6.5-1.03-8.76-2.98l-.14-.12,1.8-2.04.14.13c1.9,1.7,4.15,2.5,7.07,2.5,3.11,0,4.82-.77,4.82-2.17,0-1.32-1.71-1.7-5.29-2-3.4-.28-7.93-1.04-7.93-4.36,0-2.78,3.08-4.65,7.67-4.65,3.08,0,5.8.87,7.67,2.44l.15.13-1.83,1.97-.14-.12c-1.42-1.24-3.37-1.88-5.81-1.9-1.58-.02-3.61.27-4.45,1.1-.26.25-.38.54-.38.86,0,1.33,2.24,1.61,5.41,1.86,4.06.32,7.82,1.08,7.82,4.47,0,3.02-3,4.9-7.82,4.9ZM317.26,93.98c2.18,1.81,5.07,2.77,8.38,2.77,4.59,0,7.44-1.73,7.44-4.53,0-2.49-2.17-3.68-7.48-4.09-2.96-.23-5.75-.45-5.75-2.23,0-.42.17-.8.49-1.13,1.16-1.15,3.88-1.21,4.72-1.21,2.46.02,4.45.65,5.92,1.87l1.31-1.42c-1.77-1.42-4.41-2.23-7.27-2.23-3.63,0-7.3,1.32-7.3,4.28,0,2.29,2.41,3.56,7.58,3.99,3.3.28,5.63.62,5.63,2.38,0,1.64-1.84,2.54-5.19,2.54-2.95,0-5.23-.78-7.18-2.47l-1.3,1.47Z"/>
    </g>
    <g>
      <path class="st2" d="M344.82,89.27c0-4.78,3.43-7.67,8.99-7.67s8.99,2.89,8.99,7.67-3.43,7.67-8.99,7.67-8.99-2.89-8.99-7.67ZM360.27,89.27c0-3.51-2.52-5.48-6.45-5.48s-6.47,1.96-6.47,5.48,2.52,5.48,6.47,5.48,6.45-1.96,6.45-5.48Z"/>
      <path class="st2" d="M353.82,97.13c-5.66,0-9.18-3.01-9.18-7.86s3.52-7.86,9.18-7.86,9.18,3.01,9.18,7.86-3.52,7.86-9.18,7.86ZM353.82,81.78c-5.51,0-8.81,2.8-8.81,7.48s3.29,7.48,8.81,7.48,8.81-2.8,8.81-7.48-3.29-7.48-8.81-7.48ZM353.82,94.93c-4.17,0-6.66-2.12-6.66-5.67s2.49-5.67,6.66-5.67,6.64,2.12,6.64,5.67-2.48,5.67-6.64,5.67ZM353.82,83.98c-3.93,0-6.28,1.98-6.28,5.29s2.35,5.29,6.28,5.29,6.26-1.98,6.26-5.29-2.34-5.29-6.26-5.29Z"/>
    </g>
    <g>
      <path class="st2" d="M388.75,96.5l-4.49-5.25h-6.1v5.25h-2.48v-14.47h9.84c3.37,0,5.85,1.61,5.85,4.61,0,2.5-1.74,4.03-4.26,4.49l4.69,5.38h-3.06ZM385.36,89.12c2.07,0,3.47-.66,3.47-2.46s-1.41-2.46-3.47-2.46h-7.22v4.92h7.22Z"/>
      <path class="st2" d="M392.22,96.69h-3.56l-4.49-5.25h-5.83v5.25h-2.86v-14.85h10.03c3.67,0,6.04,1.88,6.04,4.8,0,2.37-1.49,4.03-4.09,4.61l4.75,5.44ZM388.84,96.32h2.56l-4.64-5.31.33-.06c2.61-.47,4.11-2.04,4.11-4.3,0-2.73-2.17-4.42-5.66-4.42h-9.65v14.1h2.11v-5.25h6.37l4.49,5.25ZM385.36,89.31h-7.4v-5.3h7.4c2.43,0,3.66.89,3.66,2.65s-1.23,2.65-3.66,2.65ZM378.33,88.94h7.03c2.21,0,3.29-.74,3.29-2.27s-1.08-2.27-3.29-2.27h-7.03v4.55Z"/>
    </g>
    <g>
      <path class="st2" d="M417.75,84.2h-6.59v12.3h-2.48v-12.3h-6.55v-2.17h15.63v2.17Z"/>
      <path class="st2" d="M411.35,96.69h-2.86v-12.3h-6.55v-2.55h16.01v2.55h-6.59v12.3ZM408.87,96.32h2.11v-12.3h6.59v-1.8h-15.26v1.8h6.55v12.3Z"/>
    </g>
  </g>
  <text class="st0" transform="translate(415.14 64.8)"><tspan x="0" y="0">®</tspan></text>
  <text class="st1" transform="translate(88.6 24.56)"><tspan x="0" y="0">®</tspan></text>
</svg>